<?xml version="1.0" encoding="utf-8"?>
<!-- Generator: Adobe Illustrator 16.0.0, SVG Export Plug-In . SVG Version: 6.00 Build 0)  -->
<!DOCTYPE svg PUBLIC "-//W3C//DTD SVG 1.1//EN" "http://www.w3.org/Graphics/SVG/1.1/DTD/svg11.dtd">
<svg version="1.1" id="Layer_1" xmlns="http://www.w3.org/2000/svg" xmlns:xlink="http://www.w3.org/1999/xlink" x="0px" y="0px"
	 width="1920px" height="1080px" viewBox="0 0 1920 1080" enable-background="new 0 0 1920 1080" xml:space="preserve">
<g>
	<g>
		<g>
			<g>
				<defs>
					<polygon id="SVGID_1_" points="0,0.639 1920,0 1920,1080 0,1080.639 					"/>
				</defs>
				<clipPath id="SVGID_2_">
					<use xlink:href="#SVGID_1_"  overflow="visible"/>
				</clipPath>
				<g clip-path="url(#SVGID_2_)">
					<path fill="#FFFFFF" d="M-3356.729,926.88c-403.76-46.754-1439.33-60.122-1906.65-60.961v215.126h7192v-327.5
						c-188.5,145-770.287,150.521-1675.788,174.955c-637.41-11.979-1786.445-15.991-2264.712,33.045
						C-2174.039,978.171-2852.029,985.321-3356.729,926.88z"/>
				</g>
			</g>
		</g>
		<g>
			<g>
				<defs>
					<polygon id="SVGID_3_" points="0,0.639 1920,0 1920,1080 0,1080.639 					"/>
				</defs>
				<clipPath id="SVGID_4_">
					<use xlink:href="#SVGID_3_"  overflow="visible"/>
				</clipPath>
				<g clip-path="url(#SVGID_4_)">
					<path fill="#FFFFFF" d="M-3365.35,925.835c-403.76-46.754-1439.33-60.122-1906.65-60.961V1080h7192V752.5
						c-530.5-43-569.475,192.041-1672,187c-1256.609-75.57-2106.34,4.374-2268.5,21S-2860.65,984.276-3365.35,925.835z"/>
				</g>
			</g>
		</g>
	</g>
</g>
</svg>
