<svg id="visual" viewBox="0 0 1920 937" width="1920" height="937" xmlns="http://www.w3.org/2000/svg" xmlns:xlink="http://www.w3.org/1999/xlink" version="1.1"><rect x="0" y="0" width="1920" height="937" fill="#00121a"></rect><path d="M0 795L53.3 789.7C106.7 784.3 213.3 773.7 320 767.3C426.7 761 533.3 759 640 759.8C746.7 760.7 853.3 764.3 960 765.8C1066.7 767.3 1173.3 766.7 1280 773.3C1386.7 780 1493.3 794 1600 800.2C1706.7 806.3 1813.3 804.7 1866.7 803.8L1920 803L1920 938L1866.7 938C1813.3 938 1706.7 938 1600 938C1493.3 938 1386.7 938 1280 938C1173.3 938 1066.7 938 960 938C853.3 938 746.7 938 640 938C533.3 938 426.7 938 320 938C213.3 938 106.7 938 53.3 938L0 938Z" fill="#c9c9c9" stroke-linecap="round" stroke-linejoin="miter"></path></svg>